<svg xmlns="http://www.w3.org/2000/svg" viewBox="0 0 107 81" width="856" height="648">
<g shape-rendering="crispEdges">
<rect x="52" y="0" width="1" height="1" fill="#00AAD7" opacity="0.350"/>
<rect x="55" y="0" width="2" height="1" fill="#00AAD7" opacity="0.373"/>
<rect x="51" y="1" width="3" height="1" fill="#00AAD7" opacity="0.859"/>
<rect x="55" y="1" width="2" height="1" fill="#00AAD7" opacity="0.694"/>
<rect x="43" y="2" width="2" height="1" fill="#00AAD7" opacity="0.350"/>
<rect x="47" y="2" width="2" height="1" fill="#00AAD7" opacity="0.350"/>
<rect x="51" y="2" width="3" height="1" fill="#00AAD7" opacity="0.667"/>
<rect x="56" y="2" width="1" height="1" fill="#00AAD7" opacity="0.350"/>
<rect x="64" y="2" width="2" height="1" fill="#00AAD7" opacity="0.350"/>
<rect x="48" y="3" width="1" height="1" fill="#00AAD7" opacity="0.350"/>
<rect x="51" y="3" width="2" height="1" fill="#00AAD7" opacity="0.350"/>
<rect x="55" y="3" width="2" height="1" fill="#00AAD7" opacity="0.490"/>
<rect x="36" y="4" width="1" height="1" fill="#00AAD7" opacity="0.350"/>
<rect x="38" y="4" width="3" height="1" fill="#00AAD7" opacity="0.350"/>
<rect x="43" y="4" width="17" height="1" fill="#00AAD7" opacity="1.000"/>
<rect x="61" y="4" width="5" height="1" fill="#00AAD7" opacity="1.000"/>
<rect x="68" y="4" width="2" height="1" fill="#00AAD7" opacity="0.350"/>
<rect x="72" y="4" width="1" height="1" fill="#00AAD7" opacity="0.350"/>
<rect x="74" y="4" width="1" height="1" fill="#00AAD7" opacity="0.350"/>
<rect x="36" y="5" width="1" height="1" fill="#00AAD7" opacity="0.350"/>
<rect x="38" y="5" width="1" height="1" fill="#00AAD7" opacity="0.350"/>
<rect x="40" y="5" width="10" height="1" fill="#00AAD7" opacity="1.000"/>
<rect x="51" y="5" width="3" height="1" fill="#00AAD7" opacity="1.000"/>
<rect x="55" y="5" width="3" height="1" fill="#00AAD7" opacity="1.000"/>
<rect x="59" y="5" width="1" height="1" fill="#00AAD7" opacity="1.000"/>
<rect x="61" y="5" width="6" height="1" fill="#00AAD7" opacity="1.000"/>
<rect x="72" y="5" width="1" height="1" fill="#00AAD7" opacity="0.350"/>
<rect x="74" y="5" width="1" height="1" fill="#00AAD7" opacity="0.350"/>
<rect x="34" y="6" width="2" height="1" fill="#00AAD7" opacity="0.350"/>
<rect x="38" y="6" width="8" height="1" fill="#00AAD7" opacity="1.000"/>
<rect x="47" y="6" width="20" height="1" fill="#00AAD7" opacity="1.000"/>
<rect x="68" y="6" width="3" height="1" fill="#00AAD7" opacity="1.000"/>
<rect x="72" y="6" width="3" height="1" fill="#00AAD7" opacity="0.667"/>
<rect x="44" y="7" width="1" height="1" fill="#00AAD7" opacity="0.350"/>
<rect x="72" y="7" width="2" height="1" fill="#00AAD7" opacity="0.350"/>
<rect x="30" y="8" width="16" height="1" fill="#00AAD7" opacity="1.000"/>
<rect x="47" y="8" width="3" height="1" fill="#00AAD7" opacity="1.000"/>
<rect x="51" y="8" width="3" height="1" fill="#00AAD7" opacity="1.000"/>
<rect x="55" y="8" width="21" height="1" fill="#00AAD7" opacity="1.000"/>
<rect x="77" y="8" width="2" height="1" fill="#00AAD7" opacity="0.373"/>
<rect x="30" y="9" width="16" height="1" fill="#00AAD7" opacity="1.000"/>
<rect x="47" y="9" width="3" height="1" fill="#00AAD7" opacity="1.000"/>
<rect x="51" y="9" width="25" height="1" fill="#00AAD7" opacity="1.000"/>
<rect x="77" y="9" width="2" height="1" fill="#00AAD7" opacity="0.965"/>
<rect x="22" y="10" width="2" height="1" fill="#00AAD7" opacity="0.392"/>
<rect x="25" y="10" width="21" height="1" fill="#00AAD7" opacity="1.000"/>
<rect x="47" y="10" width="29" height="1" fill="#00AAD7" opacity="1.000"/>
<rect x="77" y="10" width="3" height="1" fill="#00AAD7" opacity="1.000"/>
<rect x="82" y="10" width="1" height="1" fill="#00AAD7" opacity="0.431"/>
<rect x="84" y="10" width="3" height="1" fill="#00AAD7" opacity="0.350"/>
<rect x="25" y="11" width="4" height="1" fill="#00AAD7" opacity="0.667"/>
<rect x="30" y="11" width="16" height="1" fill="#00AAD7" opacity="1.000"/>
<rect x="47" y="11" width="33" height="1" fill="#00AAD7" opacity="1.000"/>
<rect x="81" y="11" width="1" height="1" fill="#00AAD7" opacity="0.350"/>
<rect x="88" y="11" width="1" height="1" fill="#00AAD7" opacity="0.350"/>
<rect x="21" y="12" width="3" height="1" fill="#00AAD7" opacity="1.000"/>
<rect x="25" y="12" width="21" height="1" fill="#00AAD7" opacity="1.000"/>
<rect x="47" y="12" width="1" height="1" fill="#00AAD7" opacity="0.350"/>
<rect x="52" y="12" width="1" height="1" fill="#00AAD7" opacity="0.350"/>
<rect x="55" y="12" width="2" height="1" fill="#00AAD7" opacity="0.350"/>
<rect x="58" y="12" width="2" height="1" fill="#00AAD7" opacity="0.776"/>
<rect x="61" y="12" width="2" height="1" fill="#00AAD7" opacity="0.471"/>
<rect x="64" y="12" width="7" height="1" fill="#00AAD7" opacity="0.894"/>
<rect x="72" y="12" width="1" height="1" fill="#00AAD7" opacity="0.667"/>
<rect x="74" y="12" width="2" height="1" fill="#00AAD7" opacity="0.490"/>
<rect x="77" y="12" width="3" height="1" fill="#00AAD7" opacity="0.667"/>
<rect x="81" y="12" width="6" height="1" fill="#00AAD7" opacity="1.000"/>
<rect x="21" y="13" width="29" height="1" fill="#00AAD7" opacity="1.000"/>
<rect x="51" y="13" width="3" height="1" fill="#00AAD7" opacity="0.350"/>
<rect x="55" y="13" width="2" height="1" fill="#00AAD7" opacity="0.471"/>
<rect x="58" y="13" width="31" height="1" fill="#00AAD7" opacity="1.000"/>
<rect x="19" y="14" width="1" height="1" fill="#00AAD7" opacity="0.350"/>
<rect x="21" y="14" width="29" height="1" fill="#00AAD7" opacity="1.000"/>
<rect x="55" y="14" width="33" height="1" fill="#00AAD7" opacity="1.000"/>
<rect x="19" y="15" width="1" height="1" fill="#00AAD7" opacity="0.350"/>
<rect x="21" y="15" width="20" height="1" fill="#00AAD7" opacity="1.000"/>
<rect x="42" y="15" width="1" height="1" fill="#00AAD7" opacity="0.510"/>
<rect x="44" y="15" width="5" height="1" fill="#00AAD7" opacity="0.412"/>
<rect x="52" y="15" width="1" height="1" fill="#00AAD7" opacity="0.350"/>
<rect x="55" y="15" width="2" height="1" fill="#00AAD7" opacity="0.350"/>
<rect x="59" y="15" width="7" height="1" fill="#00AAD7" opacity="0.800"/>
<rect x="67" y="15" width="20" height="1" fill="#00AAD7" opacity="1.000"/>
<rect x="22" y="16" width="1" height="1" fill="#00AAD7" opacity="0.350"/>
<rect x="25" y="16" width="1" height="1" fill="#00AAD7" opacity="0.350"/>
<rect x="30" y="16" width="6" height="1" fill="#00AAD7" opacity="0.529"/>
<rect x="72" y="16" width="1" height="1" fill="#00AAD7" opacity="0.350"/>
<rect x="74" y="16" width="6" height="1" fill="#00AAD7" opacity="0.350"/>
<rect x="81" y="16" width="3" height="1" fill="#00AAD7" opacity="0.353"/>
<rect x="85" y="16" width="1" height="1" fill="#00AAD7" opacity="0.412"/>
<rect x="19" y="17" width="1" height="1" fill="#00AAD7" opacity="0.350"/>
<rect x="21" y="17" width="16" height="1" fill="#00AAD7" opacity="1.000"/>
<rect x="38" y="17" width="1" height="1" fill="#00AAD7" opacity="0.350"/>
<rect x="51" y="17" width="2" height="1" fill="#00AAD7" opacity="0.667"/>
<rect x="54" y="17" width="3" height="1" fill="#00AAD7" opacity="0.729"/>
<rect x="58" y="17" width="1" height="1" fill="#00AAD7" opacity="0.350"/>
<rect x="62" y="17" width="1" height="1" fill="#00AAD7" opacity="0.350"/>
<rect x="64" y="17" width="2" height="1" fill="#00AAD7" opacity="0.451"/>
<rect x="69" y="17" width="1" height="1" fill="#00AAD7" opacity="0.350"/>
<rect x="72" y="17" width="15" height="1" fill="#00AAD7" opacity="1.000"/>
<rect x="88" y="17" width="1" height="1" fill="#00AAD7" opacity="0.350"/>
<rect x="19" y="18" width="1" height="1" fill="#00AAD7" opacity="0.350"/>
<rect x="21" y="18" width="16" height="1" fill="#00AAD7" opacity="1.000"/>
<rect x="38" y="18" width="1" height="1" fill="#00AAD7" opacity="0.350"/>
<rect x="51" y="18" width="2" height="1" fill="#00AAD7" opacity="0.373"/>
<rect x="54" y="18" width="3" height="1" fill="#00AAD7" opacity="0.776"/>
<rect x="70" y="18" width="1" height="1" fill="#00AAD7" opacity="0.350"/>
<rect x="72" y="18" width="15" height="1" fill="#00AAD7" opacity="1.000"/>
<rect x="19" y="19" width="1" height="1" fill="#00AAD7" opacity="0.350"/>
<rect x="21" y="19" width="8" height="1" fill="#00AAD7" opacity="1.000"/>
<rect x="31" y="19" width="2" height="1" fill="#00AAD7" opacity="0.350"/>
<rect x="34" y="19" width="3" height="1" fill="#00AAD7" opacity="0.412"/>
<rect x="38" y="19" width="1" height="1" fill="#00AAD7" opacity="0.412"/>
<rect x="51" y="19" width="7" height="1" fill="#00AAD7" opacity="1.000"/>
<rect x="70" y="19" width="1" height="1" fill="#00AAD7" opacity="0.350"/>
<rect x="72" y="19" width="5" height="1" fill="#00AAD7" opacity="0.431"/>
<rect x="78" y="19" width="9" height="1" fill="#00AAD7" opacity="1.000"/>
<rect x="88" y="19" width="1" height="1" fill="#00AAD7" opacity="0.350"/>
<rect x="21" y="20" width="8" height="1" fill="#00AAD7" opacity="0.471"/>
<rect x="52" y="20" width="1" height="1" fill="#00AAD7" opacity="0.350"/>
<rect x="55" y="20" width="2" height="1" fill="#00AAD7" opacity="0.350"/>
<rect x="74" y="20" width="1" height="1" fill="#00AAD7" opacity="0.350"/>
<rect x="78" y="20" width="2" height="1" fill="#00AAD7" opacity="0.451"/>
<rect x="81" y="20" width="2" height="1" fill="#00AAD7" opacity="0.667"/>
<rect x="84" y="20" width="3" height="1" fill="#00AAD7" opacity="0.859"/>
<rect x="21" y="21" width="8" height="1" fill="#00AAD7" opacity="1.000"/>
<rect x="52" y="21" width="1" height="1" fill="#00AAD7" opacity="0.350"/>
<rect x="55" y="21" width="3" height="1" fill="#00AAD7" opacity="1.000"/>
<rect x="64" y="21" width="2" height="1" fill="#00AAD7" opacity="0.350"/>
<rect x="78" y="21" width="1" height="1" fill="#00AAD7" opacity="0.350"/>
<rect x="80" y="21" width="7" height="1" fill="#00AAD7" opacity="1.000"/>
<rect x="88" y="21" width="1" height="1" fill="#00AAD7" opacity="0.350"/>
<rect x="21" y="22" width="8" height="1" fill="#00AAD7" opacity="1.000"/>
<rect x="51" y="22" width="2" height="1" fill="#00AAD7" opacity="0.667"/>
<rect x="55" y="22" width="3" height="1" fill="#00AAD7" opacity="1.000"/>
<rect x="59" y="22" width="1" height="1" fill="#00AAD7" opacity="0.529"/>
<rect x="62" y="22" width="5" height="1" fill="#00AAD7" opacity="0.667"/>
<rect x="78" y="22" width="11" height="1" fill="#00AAD7" opacity="1.000"/>
<rect x="19" y="23" width="1" height="1" fill="#00AAD7" opacity="0.350"/>
<rect x="21" y="23" width="9" height="1" fill="#00AAD7" opacity="1.000"/>
<rect x="52" y="23" width="1" height="1" fill="#00AAD7" opacity="0.667"/>
<rect x="55" y="23" width="3" height="1" fill="#00AAD7" opacity="1.000"/>
<rect x="59" y="23" width="1" height="1" fill="#00AAD7" opacity="0.529"/>
<rect x="62" y="23" width="1" height="1" fill="#00AAD7" opacity="0.510"/>
<rect x="64" y="23" width="3" height="1" fill="#00AAD7" opacity="0.667"/>
<rect x="78" y="23" width="9" height="1" fill="#00AAD7" opacity="1.000"/>
<rect x="19" y="24" width="1" height="1" fill="#00AAD7" opacity="0.350"/>
<rect x="21" y="24" width="10" height="1" fill="#00AAD7" opacity="1.000"/>
<rect x="51" y="24" width="2" height="1" fill="#00AAD7" opacity="0.392"/>
<rect x="54" y="24" width="4" height="1" fill="#00AAD7" opacity="1.000"/>
<rect x="59" y="24" width="8" height="1" fill="#00AAD7" opacity="0.718"/>
<rect x="76" y="24" width="11" height="1" fill="#00AAD7" opacity="1.000"/>
<rect x="88" y="24" width="1" height="1" fill="#00AAD7" opacity="0.350"/>
<rect x="19" y="25" width="1" height="1" fill="#00AAD7" opacity="0.350"/>
<rect x="22" y="25" width="1" height="1" fill="#00AAD7" opacity="0.350"/>
<rect x="30" y="25" width="1" height="1" fill="#00AAD7" opacity="0.350"/>
<rect x="51" y="25" width="2" height="1" fill="#00AAD7" opacity="0.350"/>
<rect x="55" y="25" width="2" height="1" fill="#00AAD7" opacity="0.350"/>
<rect x="78" y="25" width="3" height="1" fill="#00AAD7" opacity="0.350"/>
<rect x="82" y="25" width="1" height="1" fill="#00AAD7" opacity="0.350"/>
<rect x="85" y="25" width="1" height="1" fill="#00AAD7" opacity="0.350"/>
<rect x="19" y="26" width="1" height="1" fill="#00AAD7" opacity="0.350"/>
<rect x="21" y="26" width="8" height="1" fill="#00AAD7" opacity="1.000"/>
<rect x="30" y="26" width="1" height="1" fill="#00AAD7" opacity="0.350"/>
<rect x="51" y="26" width="9" height="1" fill="#00AAD7" opacity="1.000"/>
<rect x="61" y="26" width="2" height="1" fill="#00AAD7" opacity="0.894"/>
<rect x="64" y="26" width="7" height="1" fill="#00AAD7" opacity="0.529"/>
<rect x="72" y="26" width="3" height="1" fill="#00AAD7" opacity="0.451"/>
<rect x="77" y="26" width="10" height="1" fill="#00AAD7" opacity="1.000"/>
<rect x="88" y="26" width="1" height="1" fill="#00AAD7" opacity="0.350"/>
<rect x="19" y="27" width="1" height="1" fill="#00AAD7" opacity="0.350"/>
<rect x="21" y="27" width="10" height="1" fill="#00AAD7" opacity="1.000"/>
<rect x="49" y="27" width="1" height="1" fill="#00AAD7" opacity="0.350"/>
<rect x="51" y="27" width="9" height="1" fill="#00AAD7" opacity="1.000"/>
<rect x="61" y="27" width="2" height="1" fill="#00AAD7" opacity="0.835"/>
<rect x="64" y="27" width="7" height="1" fill="#00AAD7" opacity="0.350"/>
<rect x="72" y="27" width="3" height="1" fill="#00AAD7" opacity="0.471"/>
<rect x="78" y="27" width="12" height="1" fill="#00AAD7" opacity="1.000"/>
<rect x="19" y="28" width="1" height="1" fill="#00AAD7" opacity="0.350"/>
<rect x="21" y="28" width="10" height="1" fill="#00AAD7" opacity="1.000"/>
<rect x="49" y="28" width="1" height="1" fill="#00AAD7" opacity="0.350"/>
<rect x="51" y="28" width="2" height="1" fill="#00AAD7" opacity="1.000"/>
<rect x="54" y="28" width="9" height="1" fill="#00AAD7" opacity="1.000"/>
<rect x="64" y="28" width="9" height="1" fill="#00AAD7" opacity="0.741"/>
<rect x="74" y="28" width="1" height="1" fill="#00AAD7" opacity="0.350"/>
<rect x="77" y="28" width="13" height="1" fill="#00AAD7" opacity="1.000"/>
<rect x="21" y="29" width="8" height="1" fill="#00AAD7" opacity="1.000"/>
<rect x="30" y="29" width="1" height="1" fill="#00AAD7" opacity="0.350"/>
<rect x="52" y="29" width="1" height="1" fill="#00AAD7" opacity="0.350"/>
<rect x="55" y="29" width="3" height="1" fill="#00AAD7" opacity="1.000"/>
<rect x="59" y="29" width="3" height="1" fill="#00AAD7" opacity="0.490"/>
<rect x="65" y="29" width="1" height="1" fill="#00AAD7" opacity="0.350"/>
<rect x="68" y="29" width="3" height="1" fill="#00AAD7" opacity="0.350"/>
<rect x="81" y="29" width="6" height="1" fill="#00AAD7" opacity="1.000"/>
<rect x="88" y="29" width="2" height="1" fill="#00AAD7" opacity="0.350"/>
<rect x="21" y="30" width="3" height="1" fill="#00AAD7" opacity="1.000"/>
<rect x="25" y="30" width="4" height="1" fill="#00AAD7" opacity="1.000"/>
<rect x="30" y="30" width="1" height="1" fill="#00AAD7" opacity="0.350"/>
<rect x="51" y="30" width="2" height="1" fill="#00AAD7" opacity="0.667"/>
<rect x="55" y="30" width="2" height="1" fill="#00AAD7" opacity="0.929"/>
<rect x="58" y="30" width="2" height="1" fill="#00AAD7" opacity="0.800"/>
<rect x="61" y="30" width="2" height="1" fill="#00AAD7" opacity="0.918"/>
<rect x="64" y="30" width="2" height="1" fill="#00AAD7" opacity="0.694"/>
<rect x="68" y="30" width="3" height="1" fill="#00AAD7" opacity="0.350"/>
<rect x="72" y="30" width="1" height="1" fill="#00AAD7" opacity="0.350"/>
<rect x="78" y="30" width="9" height="1" fill="#00AAD7" opacity="1.000"/>
<rect x="88" y="30" width="1" height="1" fill="#00AAD7" opacity="0.350"/>
<rect x="19" y="31" width="1" height="1" fill="#00AAD7" opacity="0.350"/>
<rect x="21" y="31" width="9" height="1" fill="#00AAD7" opacity="1.000"/>
<rect x="49" y="31" width="4" height="1" fill="#00AAD7" opacity="0.988"/>
<rect x="54" y="31" width="6" height="1" fill="#00AAD7" opacity="1.000"/>
<rect x="61" y="31" width="5" height="1" fill="#00AAD7" opacity="1.000"/>
<rect x="77" y="31" width="10" height="1" fill="#00AAD7" opacity="1.000"/>
<rect x="88" y="31" width="1" height="1" fill="#00AAD7" opacity="0.350"/>
<rect x="19" y="32" width="1" height="1" fill="#00AAD7" opacity="0.350"/>
<rect x="21" y="32" width="3" height="1" fill="#00AAD7" opacity="1.000"/>
<rect x="25" y="32" width="4" height="1" fill="#00AAD7" opacity="1.000"/>
<rect x="51" y="32" width="2" height="1" fill="#00AAD7" opacity="1.000"/>
<rect x="54" y="32" width="4" height="1" fill="#00AAD7" opacity="1.000"/>
<rect x="59" y="32" width="8" height="1" fill="#00AAD7" opacity="1.000"/>
<rect x="78" y="32" width="9" height="1" fill="#00AAD7" opacity="1.000"/>
<rect x="19" y="33" width="1" height="1" fill="#00AAD7" opacity="0.350"/>
<rect x="21" y="33" width="3" height="1" fill="#00AAD7" opacity="1.000"/>
<rect x="25" y="33" width="7" height="1" fill="#00AAD7" opacity="1.000"/>
<rect x="51" y="33" width="7" height="1" fill="#00AAD7" opacity="1.000"/>
<rect x="59" y="33" width="4" height="1" fill="#00AAD7" opacity="1.000"/>
<rect x="64" y="33" width="3" height="1" fill="#00AAD7" opacity="1.000"/>
<rect x="75" y="33" width="1" height="1" fill="#00AAD7" opacity="0.350"/>
<rect x="77" y="33" width="10" height="1" fill="#00AAD7" opacity="1.000"/>
<rect x="88" y="33" width="1" height="1" fill="#00AAD7" opacity="0.350"/>
<rect x="25" y="34" width="1" height="1" fill="#00AAD7" opacity="0.350"/>
<rect x="28" y="34" width="1" height="1" fill="#00AAD7" opacity="0.350"/>
<rect x="52" y="34" width="1" height="1" fill="#00AAD7" opacity="0.350"/>
<rect x="55" y="34" width="2" height="1" fill="#00AAD7" opacity="0.350"/>
<rect x="64" y="34" width="2" height="1" fill="#00AAD7" opacity="0.350"/>
<rect x="78" y="34" width="1" height="1" fill="#00AAD7" opacity="0.350"/>
<rect x="82" y="34" width="1" height="1" fill="#00AAD7" opacity="0.350"/>
<rect x="85" y="34" width="2" height="1" fill="#00AAD7" opacity="0.350"/>
<rect x="19" y="35" width="1" height="1" fill="#00AAD7" opacity="0.350"/>
<rect x="21" y="35" width="3" height="1" fill="#00AAD7" opacity="1.000"/>
<rect x="25" y="35" width="4" height="1" fill="#00AAD7" opacity="1.000"/>
<rect x="30" y="35" width="2" height="1" fill="#00AAD7" opacity="1.000"/>
<rect x="47" y="35" width="2" height="1" fill="#00AAD7" opacity="0.373"/>
<rect x="51" y="35" width="2" height="1" fill="#00AAD7" opacity="1.000"/>
<rect x="54" y="35" width="6" height="1" fill="#00AAD7" opacity="1.000"/>
<rect x="61" y="35" width="8" height="1" fill="#00AAD7" opacity="1.000"/>
<rect x="75" y="35" width="5" height="1" fill="#00AAD7" opacity="1.000"/>
<rect x="81" y="35" width="2" height="1" fill="#00AAD7" opacity="1.000"/>
<rect x="84" y="35" width="3" height="1" fill="#00AAD7" opacity="1.000"/>
<rect x="88" y="35" width="1" height="1" fill="#00AAD7" opacity="0.350"/>
<rect x="22" y="36" width="2" height="1" fill="#00AAD7" opacity="1.000"/>
<rect x="25" y="36" width="7" height="1" fill="#00AAD7" opacity="1.000"/>
<rect x="45" y="36" width="1" height="1" fill="#00AAD7" opacity="0.350"/>
<rect x="47" y="36" width="3" height="1" fill="#00AAD7" opacity="0.373"/>
<rect x="51" y="36" width="18" height="1" fill="#00AAD7" opacity="1.000"/>
<rect x="75" y="36" width="11" height="1" fill="#00AAD7" opacity="1.000"/>
<rect x="21" y="37" width="3" height="1" fill="#00AAD7" opacity="1.000"/>
<rect x="25" y="37" width="7" height="1" fill="#00AAD7" opacity="1.000"/>
<rect x="45" y="37" width="1" height="1" fill="#00AAD7" opacity="0.373"/>
<rect x="47" y="37" width="3" height="1" fill="#00AAD7" opacity="0.682"/>
<rect x="51" y="37" width="18" height="1" fill="#00AAD7" opacity="1.000"/>
<rect x="75" y="37" width="1" height="1" fill="#00AAD7" opacity="0.373"/>
<rect x="77" y="37" width="10" height="1" fill="#00AAD7" opacity="1.000"/>
<rect x="21" y="38" width="3" height="1" fill="#00AAD7" opacity="0.824"/>
<rect x="25" y="38" width="4" height="1" fill="#00AAD7" opacity="1.000"/>
<rect x="30" y="38" width="2" height="1" fill="#00AAD7" opacity="0.788"/>
<rect x="47" y="38" width="2" height="1" fill="#00AAD7" opacity="0.350"/>
<rect x="51" y="38" width="12" height="1" fill="#00AAD7" opacity="1.000"/>
<rect x="64" y="38" width="3" height="1" fill="#00AAD7" opacity="0.800"/>
<rect x="77" y="38" width="10" height="1" fill="#00AAD7" opacity="1.000"/>
<rect x="28" y="39" width="1" height="1" fill="#00AAD7" opacity="0.350"/>
<rect x="48" y="39" width="1" height="1" fill="#00AAD7" opacity="0.350"/>
<rect x="51" y="39" width="2" height="1" fill="#00AAD7" opacity="0.350"/>
<rect x="55" y="39" width="5" height="1" fill="#00AAD7" opacity="0.694"/>
<rect x="61" y="39" width="1" height="1" fill="#00AAD7" opacity="0.350"/>
<rect x="77" y="39" width="2" height="1" fill="#00AAD7" opacity="0.350"/>
<rect x="82" y="39" width="1" height="1" fill="#00AAD7" opacity="0.350"/>
<rect x="14" y="40" width="2" height="1" fill="#00AAD7" opacity="0.350"/>
<rect x="22" y="40" width="10" height="1" fill="#00AAD7" opacity="1.000"/>
<rect x="34" y="40" width="1" height="1" fill="#00AAD7" opacity="0.350"/>
<rect x="43" y="40" width="2" height="1" fill="#00AAD7" opacity="0.350"/>
<rect x="47" y="40" width="3" height="1" fill="#00AAD7" opacity="0.529"/>
<rect x="51" y="40" width="2" height="1" fill="#00AAD7" opacity="0.706"/>
<rect x="54" y="40" width="9" height="1" fill="#00AAD7" opacity="1.000"/>
<rect x="64" y="40" width="3" height="1" fill="#00AAD7" opacity="0.431"/>
<rect x="75" y="40" width="11" height="1" fill="#00AAD7" opacity="1.000"/>
<rect x="14" y="41" width="2" height="1" fill="#00AAD7" opacity="0.350"/>
<rect x="22" y="41" width="10" height="1" fill="#00AAD7" opacity="1.000"/>
<rect x="34" y="41" width="1" height="1" fill="#00AAD7" opacity="0.350"/>
<rect x="42" y="41" width="4" height="1" fill="#00AAD7" opacity="0.350"/>
<rect x="47" y="41" width="3" height="1" fill="#00AAD7" opacity="0.471"/>
<rect x="51" y="41" width="2" height="1" fill="#00AAD7" opacity="0.667"/>
<rect x="54" y="41" width="9" height="1" fill="#00AAD7" opacity="1.000"/>
<rect x="64" y="41" width="3" height="1" fill="#00AAD7" opacity="0.350"/>
<rect x="75" y="41" width="10" height="1" fill="#00AAD7" opacity="1.000"/>
<rect x="14" y="42" width="2" height="1" fill="#00AAD7" opacity="0.667"/>
<rect x="22" y="42" width="10" height="1" fill="#00AAD7" opacity="1.000"/>
<rect x="34" y="42" width="1" height="1" fill="#00AAD7" opacity="0.667"/>
<rect x="42" y="42" width="4" height="1" fill="#00AAD7" opacity="0.667"/>
<rect x="47" y="42" width="3" height="1" fill="#00AAD7" opacity="0.753"/>
<rect x="51" y="42" width="2" height="1" fill="#00AAD7" opacity="0.667"/>
<rect x="54" y="42" width="9" height="1" fill="#00AAD7" opacity="1.000"/>
<rect x="64" y="42" width="3" height="1" fill="#00AAD7" opacity="0.667"/>
<rect x="74" y="42" width="12" height="1" fill="#00AAD7" opacity="1.000"/>
<rect x="25" y="43" width="2" height="1" fill="#00AAD7" opacity="0.350"/>
<rect x="28" y="43" width="1" height="1" fill="#00AAD7" opacity="0.667"/>
<rect x="30" y="43" width="2" height="1" fill="#00AAD7" opacity="0.350"/>
<rect x="44" y="43" width="1" height="1" fill="#00AAD7" opacity="0.350"/>
<rect x="55" y="43" width="2" height="1" fill="#00AAD7" opacity="0.490"/>
<rect x="59" y="43" width="1" height="1" fill="#00AAD7" opacity="0.350"/>
<rect x="61" y="43" width="1" height="1" fill="#00AAD7" opacity="0.350"/>
<rect x="78" y="43" width="1" height="1" fill="#00AAD7" opacity="0.350"/>
<rect x="81" y="43" width="2" height="1" fill="#00AAD7" opacity="0.373"/>
<rect x="25" y="44" width="4" height="1" fill="#00AAD7" opacity="0.812"/>
<rect x="30" y="44" width="5" height="1" fill="#00AAD7" opacity="1.000"/>
<rect x="44" y="44" width="1" height="1" fill="#00AAD7" opacity="0.350"/>
<rect x="47" y="44" width="2" height="1" fill="#00AAD7" opacity="0.350"/>
<rect x="51" y="44" width="2" height="1" fill="#00AAD7" opacity="0.350"/>
<rect x="54" y="44" width="3" height="1" fill="#00AAD7" opacity="1.000"/>
<rect x="58" y="44" width="2" height="1" fill="#00AAD7" opacity="0.941"/>
<rect x="61" y="44" width="2" height="1" fill="#00AAD7" opacity="0.871"/>
<rect x="64" y="44" width="2" height="1" fill="#00AAD7" opacity="0.350"/>
<rect x="74" y="44" width="5" height="1" fill="#00AAD7" opacity="1.000"/>
<rect x="80" y="44" width="3" height="1" fill="#00AAD7" opacity="1.000"/>
<rect x="85" y="44" width="1" height="1" fill="#00AAD7" opacity="0.350"/>
<rect x="25" y="45" width="12" height="1" fill="#00AAD7" opacity="1.000"/>
<rect x="52" y="45" width="1" height="1" fill="#00AAD7" opacity="0.667"/>
<rect x="54" y="45" width="6" height="1" fill="#00AAD7" opacity="1.000"/>
<rect x="61" y="45" width="2" height="1" fill="#00AAD7" opacity="1.000"/>
<rect x="64" y="45" width="3" height="1" fill="#00AAD7" opacity="0.667"/>
<rect x="72" y="45" width="1" height="1" fill="#00AAD7" opacity="0.350"/>
<rect x="74" y="45" width="14" height="1" fill="#00AAD7" opacity="1.000"/>
<rect x="25" y="46" width="12" height="1" fill="#00AAD7" opacity="1.000"/>
<rect x="51" y="46" width="2" height="1" fill="#00AAD7" opacity="0.718"/>
<rect x="54" y="46" width="6" height="1" fill="#00AAD7" opacity="1.000"/>
<rect x="61" y="46" width="2" height="1" fill="#00AAD7" opacity="0.835"/>
<rect x="64" y="46" width="3" height="1" fill="#00AAD7" opacity="0.373"/>
<rect x="72" y="46" width="1" height="1" fill="#00AAD7" opacity="0.350"/>
<rect x="74" y="46" width="13" height="1" fill="#00AAD7" opacity="1.000"/>
<rect x="25" y="47" width="13" height="1" fill="#00AAD7" opacity="1.000"/>
<rect x="51" y="47" width="2" height="1" fill="#00AAD7" opacity="0.694"/>
<rect x="54" y="47" width="6" height="1" fill="#00AAD7" opacity="1.000"/>
<rect x="61" y="47" width="2" height="1" fill="#00AAD7" opacity="1.000"/>
<rect x="64" y="47" width="3" height="1" fill="#00AAD7" opacity="0.667"/>
<rect x="74" y="47" width="13" height="1" fill="#00AAD7" opacity="1.000"/>
<rect x="26" y="48" width="3" height="1" fill="#00AAD7" opacity="0.350"/>
<rect x="30" y="48" width="2" height="1" fill="#00AAD7" opacity="0.392"/>
<rect x="33" y="48" width="2" height="1" fill="#00AAD7" opacity="0.350"/>
<rect x="55" y="48" width="2" height="1" fill="#00AAD7" opacity="0.350"/>
<rect x="65" y="48" width="1" height="1" fill="#00AAD7" opacity="0.350"/>
<rect x="77" y="48" width="2" height="1" fill="#00AAD7" opacity="0.350"/>
<rect x="80" y="48" width="4" height="1" fill="#00AAD7" opacity="0.451"/>
<rect x="26" y="49" width="2" height="1" fill="#00AAD7" opacity="1.000"/>
<rect x="29" y="49" width="3" height="1" fill="#00AAD7" opacity="1.000"/>
<rect x="33" y="49" width="3" height="1" fill="#00AAD7" opacity="1.000"/>
<rect x="38" y="49" width="1" height="1" fill="#00AAD7" opacity="0.350"/>
<rect x="51" y="49" width="2" height="1" fill="#00AAD7" opacity="0.350"/>
<rect x="54" y="49" width="3" height="1" fill="#00AAD7" opacity="1.000"/>
<rect x="59" y="49" width="3" height="1" fill="#00AAD7" opacity="1.000"/>
<rect x="63" y="49" width="4" height="1" fill="#00AAD7" opacity="0.667"/>
<rect x="69" y="49" width="1" height="1" fill="#00AAD7" opacity="0.350"/>
<rect x="71" y="49" width="8" height="1" fill="#00AAD7" opacity="1.000"/>
<rect x="80" y="49" width="2" height="1" fill="#00AAD7" opacity="1.000"/>
<rect x="85" y="49" width="1" height="1" fill="#00AAD7" opacity="0.350"/>
<rect x="26" y="50" width="11" height="1" fill="#00AAD7" opacity="1.000"/>
<rect x="38" y="50" width="1" height="1" fill="#00AAD7" opacity="0.350"/>
<rect x="54" y="50" width="4" height="1" fill="#00AAD7" opacity="1.000"/>
<rect x="59" y="50" width="8" height="1" fill="#00AAD7" opacity="0.941"/>
<rect x="69" y="50" width="1" height="1" fill="#00AAD7" opacity="0.350"/>
<rect x="71" y="50" width="11" height="1" fill="#00AAD7" opacity="1.000"/>
<rect x="25" y="51" width="12" height="1" fill="#00AAD7" opacity="1.000"/>
<rect x="38" y="51" width="1" height="1" fill="#00AAD7" opacity="0.350"/>
<rect x="54" y="51" width="4" height="1" fill="#00AAD7" opacity="1.000"/>
<rect x="59" y="51" width="4" height="1" fill="#00AAD7" opacity="1.000"/>
<rect x="64" y="51" width="3" height="1" fill="#00AAD7" opacity="0.667"/>
<rect x="69" y="51" width="1" height="1" fill="#00AAD7" opacity="0.490"/>
<rect x="71" y="51" width="12" height="1" fill="#00AAD7" opacity="1.000"/>
<rect x="26" y="52" width="6" height="1" fill="#00AAD7" opacity="0.965"/>
<rect x="33" y="52" width="4" height="1" fill="#00AAD7" opacity="0.667"/>
<rect x="38" y="52" width="1" height="1" fill="#00AAD7" opacity="0.350"/>
<rect x="54" y="52" width="4" height="1" fill="#00AAD7" opacity="1.000"/>
<rect x="59" y="52" width="3" height="1" fill="#00AAD7" opacity="0.667"/>
<rect x="69" y="52" width="1" height="1" fill="#00AAD7" opacity="0.350"/>
<rect x="71" y="52" width="8" height="1" fill="#00AAD7" opacity="1.000"/>
<rect x="80" y="52" width="2" height="1" fill="#00AAD7" opacity="0.350"/>
<rect x="30" y="53" width="2" height="1" fill="#00AAD7" opacity="0.529"/>
<rect x="34" y="53" width="1" height="1" fill="#00AAD7" opacity="0.350"/>
<rect x="36" y="53" width="1" height="1" fill="#00AAD7" opacity="0.350"/>
<rect x="38" y="53" width="1" height="1" fill="#00AAD7" opacity="0.350"/>
<rect x="55" y="53" width="2" height="1" fill="#00AAD7" opacity="0.350"/>
<rect x="59" y="53" width="2" height="1" fill="#00AAD7" opacity="0.350"/>
<rect x="72" y="53" width="1" height="1" fill="#00AAD7" opacity="0.350"/>
<rect x="74" y="53" width="2" height="1" fill="#00AAD7" opacity="0.350"/>
<rect x="77" y="53" width="2" height="1" fill="#00AAD7" opacity="0.350"/>
<rect x="26" y="54" width="1" height="1" fill="#00AAD7" opacity="0.350"/>
<rect x="29" y="54" width="11" height="1" fill="#00AAD7" opacity="1.000"/>
<rect x="51" y="54" width="2" height="1" fill="#00AAD7" opacity="0.350"/>
<rect x="54" y="54" width="4" height="1" fill="#00AAD7" opacity="1.000"/>
<rect x="59" y="54" width="3" height="1" fill="#00AAD7" opacity="0.753"/>
<rect x="64" y="54" width="2" height="1" fill="#00AAD7" opacity="0.350"/>
<rect x="68" y="54" width="13" height="1" fill="#00AAD7" opacity="1.000"/>
<rect x="84" y="54" width="3" height="1" fill="#00AAD7" opacity="0.350"/>
<rect x="29" y="55" width="11" height="1" fill="#00AAD7" opacity="1.000"/>
<rect x="52" y="55" width="1" height="1" fill="#00AAD7" opacity="0.350"/>
<rect x="54" y="55" width="4" height="1" fill="#00AAD7" opacity="1.000"/>
<rect x="59" y="55" width="3" height="1" fill="#00AAD7" opacity="0.694"/>
<rect x="64" y="55" width="2" height="1" fill="#00AAD7" opacity="0.350"/>
<rect x="68" y="55" width="13" height="1" fill="#00AAD7" opacity="1.000"/>
<rect x="84" y="55" width="3" height="1" fill="#00AAD7" opacity="0.350"/>
<rect x="27" y="56" width="1" height="1" fill="#00AAD7" opacity="0.350"/>
<rect x="29" y="56" width="12" height="1" fill="#00AAD7" opacity="1.000"/>
<rect x="43" y="56" width="1" height="1" fill="#00AAD7" opacity="0.350"/>
<rect x="51" y="56" width="2" height="1" fill="#00AAD7" opacity="0.667"/>
<rect x="54" y="56" width="4" height="1" fill="#00AAD7" opacity="1.000"/>
<rect x="59" y="56" width="3" height="1" fill="#00AAD7" opacity="0.741"/>
<rect x="64" y="56" width="3" height="1" fill="#00AAD7" opacity="0.667"/>
<rect x="68" y="56" width="11" height="1" fill="#00AAD7" opacity="1.000"/>
<rect x="80" y="56" width="1" height="1" fill="#00AAD7" opacity="0.350"/>
<rect x="84" y="56" width="3" height="1" fill="#00AAD7" opacity="0.667"/>
<rect x="29" y="57" width="3" height="1" fill="#00AAD7" opacity="0.765"/>
<rect x="33" y="57" width="2" height="1" fill="#00AAD7" opacity="0.350"/>
<rect x="38" y="57" width="2" height="1" fill="#00AAD7" opacity="0.350"/>
<rect x="55" y="57" width="2" height="1" fill="#00AAD7" opacity="0.667"/>
<rect x="68" y="57" width="2" height="1" fill="#00AAD7" opacity="0.776"/>
<rect x="77" y="57" width="2" height="1" fill="#00AAD7" opacity="0.350"/>
<rect x="30" y="58" width="2" height="1" fill="#00AAD7" opacity="0.350"/>
<rect x="33" y="58" width="2" height="1" fill="#00AAD7" opacity="0.718"/>
<rect x="36" y="58" width="9" height="1" fill="#00AAD7" opacity="0.871"/>
<rect x="65" y="58" width="5" height="1" fill="#00AAD7" opacity="0.882"/>
<rect x="71" y="58" width="2" height="1" fill="#00AAD7" opacity="0.882"/>
<rect x="74" y="58" width="2" height="1" fill="#00AAD7" opacity="0.812"/>
<rect x="80" y="58" width="1" height="1" fill="#00AAD7" opacity="0.350"/>
<rect x="85" y="58" width="1" height="1" fill="#00AAD7" opacity="0.350"/>
<rect x="28" y="59" width="1" height="1" fill="#00AAD7" opacity="0.350"/>
<rect x="30" y="59" width="2" height="1" fill="#00AAD7" opacity="0.350"/>
<rect x="33" y="59" width="2" height="1" fill="#00AAD7" opacity="1.000"/>
<rect x="36" y="59" width="7" height="1" fill="#00AAD7" opacity="1.000"/>
<rect x="44" y="59" width="2" height="1" fill="#00AAD7" opacity="0.353"/>
<rect x="55" y="59" width="2" height="1" fill="#00AAD7" opacity="0.350"/>
<rect x="62" y="59" width="14" height="1" fill="#00AAD7" opacity="1.000"/>
<rect x="77" y="59" width="1" height="1" fill="#00AAD7" opacity="0.350"/>
<rect x="33" y="60" width="10" height="1" fill="#00AAD7" opacity="1.000"/>
<rect x="44" y="60" width="1" height="1" fill="#00AAD7" opacity="0.350"/>
<rect x="62" y="60" width="2" height="1" fill="#00AAD7" opacity="0.350"/>
<rect x="65" y="60" width="12" height="1" fill="#00AAD7" opacity="1.000"/>
<rect x="31" y="61" width="1" height="1" fill="#00AAD7" opacity="0.350"/>
<rect x="33" y="61" width="12" height="1" fill="#00AAD7" opacity="1.000"/>
<rect x="47" y="61" width="1" height="1" fill="#00AAD7" opacity="0.350"/>
<rect x="60" y="61" width="2" height="1" fill="#00AAD7" opacity="0.350"/>
<rect x="63" y="61" width="13" height="1" fill="#00AAD7" opacity="1.000"/>
<rect x="77" y="61" width="1" height="1" fill="#00AAD7" opacity="0.350"/>
<rect x="35" y="62" width="1" height="1" fill="#00AAD7" opacity="0.350"/>
<rect x="38" y="62" width="2" height="1" fill="#00AAD7" opacity="0.350"/>
<rect x="41" y="62" width="2" height="1" fill="#00AAD7" opacity="0.350"/>
<rect x="68" y="62" width="2" height="1" fill="#00AAD7" opacity="0.350"/>
<rect x="71" y="62" width="2" height="1" fill="#00AAD7" opacity="0.350"/>
<rect x="31" y="63" width="1" height="1" fill="#00AAD7" opacity="0.350"/>
<rect x="34" y="63" width="12" height="1" fill="#00AAD7" opacity="1.000"/>
<rect x="47" y="63" width="2" height="1" fill="#00AAD7" opacity="0.510"/>
<rect x="59" y="63" width="1" height="1" fill="#00AAD7" opacity="0.529"/>
<rect x="62" y="63" width="13" height="1" fill="#00AAD7" opacity="1.000"/>
<rect x="77" y="63" width="1" height="1" fill="#00AAD7" opacity="0.350"/>
<rect x="34" y="64" width="12" height="1" fill="#00AAD7" opacity="1.000"/>
<rect x="47" y="64" width="2" height="1" fill="#00AAD7" opacity="0.667"/>
<rect x="59" y="64" width="16" height="1" fill="#00AAD7" opacity="1.000"/>
<rect x="34" y="65" width="2" height="1" fill="#00AAD7" opacity="0.529"/>
<rect x="37" y="65" width="9" height="1" fill="#00AAD7" opacity="1.000"/>
<rect x="47" y="65" width="3" height="1" fill="#00AAD7" opacity="1.000"/>
<rect x="59" y="65" width="12" height="1" fill="#00AAD7" opacity="1.000"/>
<rect x="73" y="65" width="2" height="1" fill="#00AAD7" opacity="0.471"/>
<rect x="37" y="66" width="9" height="1" fill="#00AAD7" opacity="0.835"/>
<rect x="47" y="66" width="2" height="1" fill="#00AAD7" opacity="0.667"/>
<rect x="55" y="66" width="1" height="1" fill="#00AAD7" opacity="0.350"/>
<rect x="59" y="66" width="8" height="1" fill="#00AAD7" opacity="0.753"/>
<rect x="68" y="66" width="3" height="1" fill="#00AAD7" opacity="0.800"/>
<rect x="38" y="67" width="1" height="1" fill="#00AAD7" opacity="0.350"/>
<rect x="41" y="67" width="2" height="1" fill="#00AAD7" opacity="0.350"/>
<rect x="44" y="67" width="1" height="1" fill="#00AAD7" opacity="0.510"/>
<rect x="47" y="67" width="2" height="1" fill="#00AAD7" opacity="0.667"/>
<rect x="51" y="67" width="2" height="1" fill="#00AAD7" opacity="0.350"/>
<rect x="55" y="67" width="2" height="1" fill="#00AAD7" opacity="0.350"/>
<rect x="59" y="67" width="1" height="1" fill="#00AAD7" opacity="0.706"/>
<rect x="62" y="67" width="1" height="1" fill="#00AAD7" opacity="0.471"/>
<rect x="65" y="67" width="2" height="1" fill="#00AAD7" opacity="0.350"/>
<rect x="69" y="67" width="1" height="1" fill="#00AAD7" opacity="0.350"/>
<rect x="38" y="68" width="1" height="1" fill="#00AAD7" opacity="0.510"/>
<rect x="40" y="68" width="6" height="1" fill="#00AAD7" opacity="1.000"/>
<rect x="47" y="68" width="3" height="1" fill="#00AAD7" opacity="1.000"/>
<rect x="51" y="68" width="3" height="1" fill="#00AAD7" opacity="1.000"/>
<rect x="55" y="68" width="16" height="1" fill="#00AAD7" opacity="1.000"/>
<rect x="39" y="69" width="1" height="1" fill="#00AAD7" opacity="0.350"/>
<rect x="41" y="69" width="5" height="1" fill="#00AAD7" opacity="1.000"/>
<rect x="47" y="69" width="3" height="1" fill="#00AAD7" opacity="1.000"/>
<rect x="51" y="69" width="3" height="1" fill="#00AAD7" opacity="1.000"/>
<rect x="55" y="69" width="14" height="1" fill="#00AAD7" opacity="1.000"/>
<rect x="41" y="70" width="5" height="1" fill="#00AAD7" opacity="1.000"/>
<rect x="47" y="70" width="3" height="1" fill="#00AAD7" opacity="1.000"/>
<rect x="51" y="70" width="16" height="1" fill="#00AAD7" opacity="1.000"/>
<rect x="39" y="72" width="1" height="1" fill="#00AAD7" opacity="0.350"/>
<rect x="42" y="72" width="4" height="1" fill="#00AAD7" opacity="1.000"/>
<rect x="47" y="72" width="3" height="1" fill="#00AAD7" opacity="1.000"/>
<rect x="51" y="72" width="3" height="1" fill="#00AAD7" opacity="1.000"/>
<rect x="55" y="72" width="2" height="1" fill="#00AAD7" opacity="1.000"/>
<rect x="58" y="72" width="3" height="1" fill="#00AAD7" opacity="1.000"/>
<rect x="62" y="72" width="2" height="1" fill="#00AAD7" opacity="1.000"/>
<rect x="65" y="72" width="1" height="1" fill="#00AAD7" opacity="0.350"/>
<rect x="42" y="73" width="4" height="1" fill="#00AAD7" opacity="1.000"/>
<rect x="47" y="73" width="3" height="1" fill="#00AAD7" opacity="1.000"/>
<rect x="51" y="73" width="6" height="1" fill="#00AAD7" opacity="1.000"/>
<rect x="58" y="73" width="6" height="1" fill="#00AAD7" opacity="1.000"/>
<rect x="65" y="73" width="1" height="1" fill="#00AAD7" opacity="0.350"/>
<rect x="42" y="74" width="8" height="1" fill="#00AAD7" opacity="1.000"/>
<rect x="51" y="74" width="3" height="1" fill="#00AAD7" opacity="1.000"/>
<rect x="55" y="74" width="8" height="1" fill="#00AAD7" opacity="1.000"/>
<rect x="64" y="74" width="2" height="1" fill="#00AAD7" opacity="0.350"/>
<rect x="47" y="75" width="3" height="1" fill="#00AAD7" opacity="0.694"/>
<rect x="51" y="75" width="3" height="1" fill="#00AAD7" opacity="0.718"/>
<rect x="55" y="75" width="8" height="1" fill="#00AAD7" opacity="1.000"/>
<rect x="47" y="76" width="2" height="1" fill="#00AAD7" opacity="0.350"/>
<rect x="51" y="76" width="3" height="1" fill="#00AAD7" opacity="1.000"/>
<rect x="55" y="76" width="2" height="1" fill="#00AAD7" opacity="0.847"/>
<rect x="59" y="76" width="4" height="1" fill="#00AAD7" opacity="0.412"/>
<rect x="47" y="77" width="2" height="1" fill="#00AAD7" opacity="0.350"/>
<rect x="51" y="77" width="9" height="1" fill="#00AAD7" opacity="1.000"/>
<rect x="61" y="77" width="2" height="1" fill="#00AAD7" opacity="0.350"/>
<rect x="51" y="78" width="3" height="1" fill="#00AAD7" opacity="1.000"/>
<rect x="55" y="78" width="3" height="1" fill="#00AAD7" opacity="1.000"/>
<rect x="59" y="78" width="1" height="1" fill="#00AAD7" opacity="0.350"/>
<rect x="61" y="78" width="1" height="1" fill="#00AAD7" opacity="0.350"/>
<rect x="51" y="79" width="3" height="1" fill="#00AAD7" opacity="1.000"/>
<rect x="55" y="79" width="2" height="1" fill="#00AAD7" opacity="0.741"/>
<rect x="59" y="79" width="1" height="1" fill="#00AAD7" opacity="0.350"/>
<rect x="61" y="79" width="1" height="1" fill="#00AAD7" opacity="0.451"/>
</g>
</svg>